# xmcd CD database file
#
# Track frame offsets:
#	150
#	14442
#	31030
#	48190
#	59740
#	71767
#	84710
#	104630
#	139805
#	156230
#
# Disc length: 2383 seconds
#
# Revision: 0
# Processed by: cddbd v1.5.1PL0 Copyright (c) Steve Scherf et al.
# Submitted via: CDex 1.51
#
DISCID=8b094d0a
DTITLE=Nine Below Zero - Covers
DYEAR=1997
DGENRE=Blues
TTITLE0=Checkin' On My Baby
TTITLE1=So Cold
TTITLE2=Nine Below Zero
TTITLE3=Give Me No Lip Child
TTITLE4=She's All The Rage
TTITLE5=Hip Shake
TTITLE6=The Love You Bring
TTITLE7=Troubled Life
TTITLE8=You Know This
TTITLE9=Line Of Least Resistance
EXTD=YEAR: 1997
EXTT0=
EXTT1=
EXTT2=
EXTT3=
EXTT4=
EXTT5=
EXTT6=
EXTT7=
EXTT8=
EXTT9=
PLAYORDER=
